<mxfile host="" modified="2020-05-24T15:21:41.060Z" agent="5.0 (X11; Linux x86_64) AppleWebKit/537.36 (KHTML, like Gecko) Code/1.45.0 Chrome/78.0.3904.130 Electron/7.2.4 Safari/537.36" version="13.1.3" etag="lrwgP8mNOWNbAz78NI_h" pages="2">
            <diagram id="diagramid" name="Diagram">
              <mxGraphModel><root><mxCell id="0"/><mxCell id="1" parent="0"/><mxCell id="2" value="vpcA2121C38" style="outlineConnect=0;fontColor=#B3B3B3;gradientColor=#945DF2;gradientDirection=north;fillColor=#5A30B5;strokeColor=#ffffff;dashed=0;verticalLabelPosition=bottom;verticalAlign=top;align=center;html=1;fontSize=12;fontStyle=0;aspect=fixed;shape=mxgraph.aws4.resourceIcon;resIcon=mxgraph.aws4.vpc;" vertex="1" parent="1"><mxGeometry x="1000" y="962.5" width="50" height="50" as="geometry"/></mxCell><mxCell id="3" value="vpcPublicSubnet1Subnet2E65531E" style="outlineConnect=0;fontColor=#B3B3B3;gradientColor=#F78E04;gradientDirection=north;fillColor=#D05C17;strokeColor=#ffffff;dashed=0;verticalLabelPosition=bottom;verticalAlign=top;align=center;html=1;fontSize=12;fontStyle=0;aspect=fixed;shape=mxgraph.aws4.resourceIcon;resIcon=mxgraph.aws4.ec2;" vertex="1" parent="1"><mxGeometry x="750" y="1000" width="50" height="50" as="geometry"/></mxCell><mxCell id="4" value="vpcPublicSubnet1RouteTable48A2DF9B" style="outlineConnect=0;fontColor=#B3B3B3;gradientColor=#945DF2;gradientDirection=north;fillColor=#5A30B5;strokeColor=#ffffff;dashed=0;verticalLabelPosition=bottom;verticalAlign=top;align=center;html=1;fontSize=12;fontStyle=0;aspect=fixed;shape=mxgraph.aws4.resourceIcon;resIcon=mxgraph.aws4.route_table;" vertex="1" parent="1"><mxGeometry x="250" y="50" width="50" height="50" as="geometry"/></mxCell><mxCell id="5" value="vpcPublicSubnet1RouteTableAssociation5D3F4579" style="outlineConnect=0;fontColor=#B3B3B3;gradientColor=#945DF2;gradientDirection=north;fillColor=#5A30B5;strokeColor=#ffffff;dashed=0;verticalLabelPosition=bottom;verticalAlign=top;align=center;html=1;fontSize=12;fontStyle=0;aspect=fixed;shape=mxgraph.aws4.resourceIcon;resIcon=mxgraph.aws4.route_table;" vertex="1" parent="1"><mxGeometry y="12.5" width="50" height="50" as="geometry"/></mxCell><mxCell id="6" value="vpcPublicSubnet1DefaultRoute10708846" style="outlineConnect=0;fontColor=#B3B3B3;gradientColor=#945DF2;gradientDirection=north;fillColor=#5A30B5;strokeColor=#ffffff;dashed=0;verticalLabelPosition=bottom;verticalAlign=top;align=center;html=1;fontSize=12;fontStyle=0;aspect=fixed;shape=mxgraph.aws4.resourceIcon;resIcon=mxgraph.aws4.route_table;" vertex="1" parent="1"><mxGeometry y="175" width="50" height="50" as="geometry"/></mxCell><mxCell id="7" value="vpcPublicSubnet1EIPDA49DCBE" style="outlineConnect=0;fontColor=#B3B3B3;gradientColor=#945DF2;gradientDirection=north;fillColor=#5A30B5;strokeColor=#ffffff;dashed=0;verticalLabelPosition=bottom;verticalAlign=top;align=center;html=1;fontSize=12;fontStyle=0;aspect=fixed;shape=mxgraph.aws4.resourceIcon;resIcon=mxgraph.aws4.elastic_ip_address;" vertex="1" parent="1"><mxGeometry x="500" y="600" width="50" height="50" as="geometry"/></mxCell><mxCell id="8" value="vpcPublicSubnet1NATGateway9C16659E" style="outlineConnect=0;fontColor=#B3B3B3;gradientColor=#945DF2;gradientDirection=north;fillColor=#5A30B5;strokeColor=#ffffff;dashed=0;verticalLabelPosition=bottom;verticalAlign=top;align=center;html=1;fontSize=12;fontStyle=0;aspect=fixed;shape=mxgraph.aws4.resourceIcon;resIcon=mxgraph.aws4.nat_gateway;" vertex="1" parent="1"><mxGeometry x="250" y="550" width="50" height="50" as="geometry"/></mxCell><mxCell id="9" value="vpcPublicSubnet2Subnet009B674F" style="outlineConnect=0;fontColor=#B3B3B3;gradientColor=#F78E04;gradientDirection=north;fillColor=#D05C17;strokeColor=#ffffff;dashed=0;verticalLabelPosition=bottom;verticalAlign=top;align=center;html=1;fontSize=12;fontStyle=0;aspect=fixed;shape=mxgraph.aws4.resourceIcon;resIcon=mxgraph.aws4.ec2;" vertex="1" parent="1"><mxGeometry x="750" y="1100" width="50" height="50" as="geometry"/></mxCell><mxCell id="10" value="vpcPublicSubnet2RouteTableEB40D4CB" style="outlineConnect=0;fontColor=#B3B3B3;gradientColor=#945DF2;gradientDirection=north;fillColor=#5A30B5;strokeColor=#ffffff;dashed=0;verticalLabelPosition=bottom;verticalAlign=top;align=center;html=1;fontSize=12;fontStyle=0;aspect=fixed;shape=mxgraph.aws4.resourceIcon;resIcon=mxgraph.aws4.route_table;" vertex="1" parent="1"><mxGeometry x="250" y="200" width="50" height="50" as="geometry"/></mxCell><mxCell id="11" value="vpcPublicSubnet2RouteTableAssociation21F81B59" style="outlineConnect=0;fontColor=#B3B3B3;gradientColor=#945DF2;gradientDirection=north;fillColor=#5A30B5;strokeColor=#ffffff;dashed=0;verticalLabelPosition=bottom;verticalAlign=top;align=center;html=1;fontSize=12;fontStyle=0;aspect=fixed;shape=mxgraph.aws4.resourceIcon;resIcon=mxgraph.aws4.route_table;" vertex="1" parent="1"><mxGeometry y="275" width="50" height="50" as="geometry"/></mxCell><mxCell id="12" value="vpcPublicSubnet2DefaultRouteA1EC0F60" style="outlineConnect=0;fontColor=#B3B3B3;gradientColor=#945DF2;gradientDirection=north;fillColor=#5A30B5;strokeColor=#ffffff;dashed=0;verticalLabelPosition=bottom;verticalAlign=top;align=center;html=1;fontSize=12;fontStyle=0;aspect=fixed;shape=mxgraph.aws4.resourceIcon;resIcon=mxgraph.aws4.route_table;" vertex="1" parent="1"><mxGeometry y="375" width="50" height="50" as="geometry"/></mxCell><mxCell id="13" value="vpcPrivateSubnet1Subnet934893E8" style="outlineConnect=0;fontColor=#B3B3B3;gradientColor=#F78E04;gradientDirection=north;fillColor=#D05C17;strokeColor=#ffffff;dashed=0;verticalLabelPosition=bottom;verticalAlign=top;align=center;html=1;fontSize=12;fontStyle=0;aspect=fixed;shape=mxgraph.aws4.resourceIcon;resIcon=mxgraph.aws4.ec2;" vertex="1" parent="1"><mxGeometry x="750" y="1200" width="50" height="50" as="geometry"/></mxCell><mxCell id="14" value="vpcPrivateSubnet1RouteTableB41A48CC" style="outlineConnect=0;fontColor=#B3B3B3;gradientColor=#945DF2;gradientDirection=north;fillColor=#5A30B5;strokeColor=#ffffff;dashed=0;verticalLabelPosition=bottom;verticalAlign=top;align=center;html=1;fontSize=12;fontStyle=0;aspect=fixed;shape=mxgraph.aws4.resourceIcon;resIcon=mxgraph.aws4.route_table;" vertex="1" parent="1"><mxGeometry x="250" y="450" width="50" height="50" as="geometry"/></mxCell><mxCell id="15" value="vpcPrivateSubnet1RouteTableAssociation67945127" style="outlineConnect=0;fontColor=#B3B3B3;gradientColor=#945DF2;gradientDirection=north;fillColor=#5A30B5;strokeColor=#ffffff;dashed=0;verticalLabelPosition=bottom;verticalAlign=top;align=center;html=1;fontSize=12;fontStyle=0;aspect=fixed;shape=mxgraph.aws4.resourceIcon;resIcon=mxgraph.aws4.route_table;" vertex="1" parent="1"><mxGeometry y="475" width="50" height="50" as="geometry"/></mxCell><mxCell id="16" value="vpcPrivateSubnet1DefaultRoute1AA8E2E5" style="outlineConnect=0;fontColor=#B3B3B3;gradientColor=#945DF2;gradientDirection=north;fillColor=#5A30B5;strokeColor=#ffffff;dashed=0;verticalLabelPosition=bottom;verticalAlign=top;align=center;html=1;fontSize=12;fontStyle=0;aspect=fixed;shape=mxgraph.aws4.resourceIcon;resIcon=mxgraph.aws4.route_table;" vertex="1" parent="1"><mxGeometry y="575" width="50" height="50" as="geometry"/></mxCell><mxCell id="17" value="vpcPrivateSubnet2Subnet7031C2BA" style="outlineConnect=0;fontColor=#B3B3B3;gradientColor=#F78E04;gradientDirection=north;fillColor=#D05C17;strokeColor=#ffffff;dashed=0;verticalLabelPosition=bottom;verticalAlign=top;align=center;html=1;fontSize=12;fontStyle=0;aspect=fixed;shape=mxgraph.aws4.resourceIcon;resIcon=mxgraph.aws4.ec2;" vertex="1" parent="1"><mxGeometry x="750" y="1300" width="50" height="50" as="geometry"/></mxCell><mxCell id="18" value="vpcPrivateSubnet2RouteTable7280F23E" style="outlineConnect=0;fontColor=#B3B3B3;gradientColor=#945DF2;gradientDirection=north;fillColor=#5A30B5;strokeColor=#ffffff;dashed=0;verticalLabelPosition=bottom;verticalAlign=top;align=center;html=1;fontSize=12;fontStyle=0;aspect=fixed;shape=mxgraph.aws4.resourceIcon;resIcon=mxgraph.aws4.route_table;" vertex="1" parent="1"><mxGeometry x="250" y="700" width="50" height="50" as="geometry"/></mxCell><mxCell id="19" value="vpcPrivateSubnet2RouteTableAssociation007E94D3" style="outlineConnect=0;fontColor=#B3B3B3;gradientColor=#945DF2;gradientDirection=north;fillColor=#5A30B5;strokeColor=#ffffff;dashed=0;verticalLabelPosition=bottom;verticalAlign=top;align=center;html=1;fontSize=12;fontStyle=0;aspect=fixed;shape=mxgraph.aws4.resourceIcon;resIcon=mxgraph.aws4.route_table;" vertex="1" parent="1"><mxGeometry y="775" width="50" height="50" as="geometry"/></mxCell><mxCell id="20" value="vpcPrivateSubnet2DefaultRouteB0E07F99" style="outlineConnect=0;fontColor=#B3B3B3;gradientColor=#945DF2;gradientDirection=north;fillColor=#5A30B5;strokeColor=#ffffff;dashed=0;verticalLabelPosition=bottom;verticalAlign=top;align=center;html=1;fontSize=12;fontStyle=0;aspect=fixed;shape=mxgraph.aws4.resourceIcon;resIcon=mxgraph.aws4.route_table;" vertex="1" parent="1"><mxGeometry y="675" width="50" height="50" as="geometry"/></mxCell><mxCell id="21" value="vpcIGWE57CBDCA" style="outlineConnect=0;fontColor=#B3B3B3;gradientColor=#F78E04;gradientDirection=north;fillColor=#D05C17;strokeColor=#ffffff;dashed=0;verticalLabelPosition=bottom;verticalAlign=top;align=center;html=1;fontSize=12;fontStyle=0;aspect=fixed;shape=mxgraph.aws4.resourceIcon;resIcon=mxgraph.aws4.ec2;" vertex="1" parent="1"><mxGeometry x="250" y="300" width="50" height="50" as="geometry"/></mxCell><mxCell id="22" value="vpcVPCGW7984C166" style="outlineConnect=0;fontColor=#B3B3B3;gradientColor=#F78E04;gradientDirection=north;fillColor=#D05C17;strokeColor=#ffffff;dashed=0;verticalLabelPosition=bottom;verticalAlign=top;align=center;html=1;fontSize=12;fontStyle=0;aspect=fixed;shape=mxgraph.aws4.resourceIcon;resIcon=mxgraph.aws4.ec2;" vertex="1" parent="1"><mxGeometry y="875" width="50" height="50" as="geometry"/></mxCell><mxCell id="23" value="ProxytoDBConnectionC580BD64" style="outlineConnect=0;fontColor=#B3B3B3;gradientColor=#F78E04;gradientDirection=north;fillColor=#D05C17;strokeColor=#ffffff;dashed=0;verticalLabelPosition=bottom;verticalAlign=top;align=center;html=1;fontSize=12;fontStyle=0;aspect=fixed;shape=mxgraph.aws4.resourceIcon;resIcon=mxgraph.aws4.ec2;" vertex="1" parent="1"><mxGeometry x="500" y="900" width="50" height="50" as="geometry"/></mxCell><mxCell id="24" value="ProxytoDBConnectionfromCDKSpringPipelineProxytoDBConnectionB45DD4085432F12BFB4D" style="outlineConnect=0;fontColor=#B3B3B3;gradientColor=#F78E04;gradientDirection=north;fillColor=#D05C17;strokeColor=#ffffff;dashed=0;verticalLabelPosition=bottom;verticalAlign=top;align=center;html=1;fontSize=12;fontStyle=0;aspect=fixed;shape=mxgraph.aws4.resourceIcon;resIcon=mxgraph.aws4.ec2;" vertex="1" parent="1"><mxGeometry x="250" y="950" width="50" height="50" as="geometry"/></mxCell><mxCell id="25" value="ProxytoDBConnectionfromCDKSpringPipelineECStoDBConnection42FB00B354320034E974" style="outlineConnect=0;fontColor=#B3B3B3;gradientColor=#F78E04;gradientDirection=north;fillColor=#D05C17;strokeColor=#ffffff;dashed=0;verticalLabelPosition=bottom;verticalAlign=top;align=center;html=1;fontSize=12;fontStyle=0;aspect=fixed;shape=mxgraph.aws4.resourceIcon;resIcon=mxgraph.aws4.ec2;" vertex="1" parent="1"><mxGeometry x="250" y="850" width="50" height="50" as="geometry"/></mxCell><mxCell id="26" value="ProxytoDBConnectionfromCDKSpringPipelinebastiontoDBConnectionDA527A7B5432092B6E2C" style="outlineConnect=0;fontColor=#B3B3B3;gradientColor=#F78E04;gradientDirection=north;fillColor=#D05C17;strokeColor=#ffffff;dashed=0;verticalLabelPosition=bottom;verticalAlign=top;align=center;html=1;fontSize=12;fontStyle=0;aspect=fixed;shape=mxgraph.aws4.resourceIcon;resIcon=mxgraph.aws4.ec2;" vertex="1" parent="1"><mxGeometry y="1062.5" width="50" height="50" as="geometry"/></mxCell><mxCell id="27" value="ECStoDBConnection6EF693BD" style="outlineConnect=0;fontColor=#B3B3B3;gradientColor=#F78E04;gradientDirection=north;fillColor=#D05C17;strokeColor=#ffffff;dashed=0;verticalLabelPosition=bottom;verticalAlign=top;align=center;html=1;fontSize=12;fontStyle=0;aspect=fixed;shape=mxgraph.aws4.resourceIcon;resIcon=mxgraph.aws4.ec2;" vertex="1" parent="1"><mxGeometry x="750" y="1400" width="50" height="50" as="geometry"/></mxCell><mxCell id="28" value="ECStoDBConnectionfromCDKSpringPipelineLBSecurityGroupA37A9B6B808056786AA8" style="outlineConnect=0;fontColor=#B3B3B3;gradientColor=#F78E04;gradientDirection=north;fillColor=#D05C17;strokeColor=#ffffff;dashed=0;verticalLabelPosition=bottom;verticalAlign=top;align=center;html=1;fontSize=12;fontStyle=0;aspect=fixed;shape=mxgraph.aws4.resourceIcon;resIcon=mxgraph.aws4.ec2;" vertex="1" parent="1"><mxGeometry x="250" y="1200" width="50" height="50" as="geometry"/></mxCell><mxCell id="29" value="bastiontoDBConnection164C5876" style="outlineConnect=0;fontColor=#B3B3B3;gradientColor=#F78E04;gradientDirection=north;fillColor=#D05C17;strokeColor=#ffffff;dashed=0;verticalLabelPosition=bottom;verticalAlign=top;align=center;html=1;fontSize=12;fontStyle=0;aspect=fixed;shape=mxgraph.aws4.resourceIcon;resIcon=mxgraph.aws4.ec2;" vertex="1" parent="1"><mxGeometry x="250" y="1100" width="50" height="50" as="geometry"/></mxCell><mxCell id="30" value="InstanceWithUsernameSubnetGroup594E24DA" style="outlineConnect=0;fontColor=#B3B3B3;gradientColor=#4D72F3;gradientDirection=north;fillColor=#3334B9;strokeColor=#ffffff;dashed=0;verticalLabelPosition=bottom;verticalAlign=top;align=center;html=1;fontSize=12;fontStyle=0;aspect=fixed;shape=mxgraph.aws4.resourceIcon;resIcon=mxgraph.aws4.rds;" vertex="1" parent="1"><mxGeometry x="500" y="1200" width="50" height="50" as="geometry"/></mxCell><mxCell id="31" value="CDKSpringPipelineInstanceWithUsernameSecret832EB6F13fdaad7efa858a3daf9490cf0a702aeb" style="outlineConnect=0;fontColor=#B3B3B3;gradientColor=#F54749;gradientDirection=north;fillColor=#C7131F;strokeColor=#ffffff;dashed=0;verticalLabelPosition=bottom;verticalAlign=top;align=center;html=1;fontSize=12;fontStyle=0;aspect=fixed;shape=mxgraph.aws4.resourceIcon;resIcon=mxgraph.aws4.secretsmanager;" vertex="1" parent="1"><mxGeometry x="500" y="1100" width="50" height="50" as="geometry"/></mxCell><mxCell id="32" value="InstanceWithUsernameSecretAttachment5A81FDA1" style="outlineConnect=0;fontColor=#B3B3B3;gradientColor=#F54749;gradientDirection=north;fillColor=#C7131F;strokeColor=#ffffff;dashed=0;verticalLabelPosition=bottom;verticalAlign=top;align=center;html=1;fontSize=12;fontStyle=0;aspect=fixed;shape=mxgraph.aws4.resourceIcon;resIcon=mxgraph.aws4.secretsmanager;" vertex="1" parent="1"><mxGeometry y="1312.5" width="50" height="50" as="geometry"/></mxCell><mxCell id="33" value="InstanceWithUsernameA51968DB" style="outlineConnect=0;fontColor=#B3B3B3;gradientColor=#4D72F3;gradientDirection=north;fillColor=#3334B9;strokeColor=#ffffff;dashed=0;verticalLabelPosition=bottom;verticalAlign=top;align=center;html=1;fontSize=12;fontStyle=0;aspect=fixed;shape=mxgraph.aws4.resourceIcon;resIcon=mxgraph.aws4.rds;" vertex="1" parent="1"><mxGeometry x="250" y="1350" width="50" height="50" as="geometry"/></mxCell><mxCell id="34" value="bastionInstanceRole5FE40889" style="outlineConnect=0;fontColor=#B3B3B3;gradientColor=#F54749;gradientDirection=north;fillColor=#C7131F;strokeColor=#ffffff;dashed=0;verticalLabelPosition=bottom;verticalAlign=top;align=center;html=1;fontSize=12;fontStyle=0;aspect=fixed;shape=mxgraph.aws4.resourceIcon;resIcon=mxgraph.aws4.role;" vertex="1" parent="1"><mxGeometry x="500" y="1300" width="50" height="50" as="geometry"/></mxCell><mxCell id="35" value="bastionInstanceRoleDefaultPolicyAF88F25C" style="outlineConnect=0;fontColor=#B3B3B3;gradientColor=#F54749;gradientDirection=north;fillColor=#C7131F;strokeColor=#ffffff;dashed=0;verticalLabelPosition=bottom;verticalAlign=top;align=center;html=1;fontSize=12;fontStyle=0;aspect=fixed;shape=mxgraph.aws4.resourceIcon;resIcon=mxgraph.aws4.identity_and_access_management;" vertex="1" parent="1"><mxGeometry x="250" y="1450" width="50" height="50" as="geometry"/></mxCell><mxCell id="36" value="bastionInstanceProfileE50CD38E" style="outlineConnect=0;fontColor=#B3B3B3;gradientColor=#F54749;gradientDirection=north;fillColor=#C7131F;strokeColor=#ffffff;dashed=0;verticalLabelPosition=bottom;verticalAlign=top;align=center;html=1;fontSize=12;fontStyle=0;aspect=fixed;shape=mxgraph.aws4.resourceIcon;resIcon=mxgraph.aws4.identity_and_access_management;" vertex="1" parent="1"><mxGeometry x="250" y="1550" width="50" height="50" as="geometry"/></mxCell><mxCell id="37" value="bastion2B0A2D9E" style="outlineConnect=0;fontColor=#B3B3B3;gradientColor=#F78E04;gradientDirection=north;fillColor=#D05C17;strokeColor=#ffffff;dashed=0;verticalLabelPosition=bottom;verticalAlign=top;align=center;html=1;fontSize=12;fontStyle=0;aspect=fixed;shape=mxgraph.aws4.resourceIcon;resIcon=mxgraph.aws4.ec2;" vertex="1" parent="1"><mxGeometry y="1550" width="50" height="50" as="geometry"/></mxCell><mxCell id="38" value="LB8A12904C" style="outlineConnect=0;fontColor=#B3B3B3;gradientColor=#aaaaaa;gradientDirection=north;fillColor=#aaaaaa;strokeColor=#ffffff;dashed=0;verticalLabelPosition=bottom;verticalAlign=top;align=center;html=1;fontSize=12;fontStyle=0;aspect=fixed;shape=mxgraph.aws4.resourceIcon;resIcon=mxgraph.aws4.elasticloadbalancingv2;" vertex="1" parent="1"><mxGeometry x="250" y="1850" width="50" height="50" as="geometry"/></mxCell><mxCell id="39" value="LBSecurityGroup8A41EA2B" style="outlineConnect=0;fontColor=#B3B3B3;gradientColor=#F78E04;gradientDirection=north;fillColor=#D05C17;strokeColor=#ffffff;dashed=0;verticalLabelPosition=bottom;verticalAlign=top;align=center;html=1;fontSize=12;fontStyle=0;aspect=fixed;shape=mxgraph.aws4.resourceIcon;resIcon=mxgraph.aws4.ec2;" vertex="1" parent="1"><mxGeometry x="500" y="1500" width="50" height="50" as="geometry"/></mxCell><mxCell id="40" value="LBSecurityGrouptoCDKSpringPipelineECStoDBConnection42FB00B3808047FABEE5" style="outlineConnect=0;fontColor=#B3B3B3;gradientColor=#F78E04;gradientDirection=north;fillColor=#D05C17;strokeColor=#ffffff;dashed=0;verticalLabelPosition=bottom;verticalAlign=top;align=center;html=1;fontSize=12;fontStyle=0;aspect=fixed;shape=mxgraph.aws4.resourceIcon;resIcon=mxgraph.aws4.ec2;" vertex="1" parent="1"><mxGeometry x="250" y="1700" width="50" height="50" as="geometry"/></mxCell><mxCell id="41" value="LBPublicListener6E1F3D94" style="outlineConnect=0;fontColor=#B3B3B3;gradientColor=#aaaaaa;gradientDirection=north;fillColor=#aaaaaa;strokeColor=#ffffff;dashed=0;verticalLabelPosition=bottom;verticalAlign=top;align=center;html=1;fontSize=12;fontStyle=0;aspect=fixed;shape=mxgraph.aws4.resourceIcon;resIcon=mxgraph.aws4.elasticloadbalancingv2;" vertex="1" parent="1"><mxGeometry y="1750" width="50" height="50" as="geometry"/></mxCell><mxCell id="42" value="LBPublicListenerECSGroupD6A32205" style="outlineConnect=0;fontColor=#B3B3B3;gradientColor=#aaaaaa;gradientDirection=north;fillColor=#aaaaaa;strokeColor=#ffffff;dashed=0;verticalLabelPosition=bottom;verticalAlign=top;align=center;html=1;fontSize=12;fontStyle=0;aspect=fixed;shape=mxgraph.aws4.resourceIcon;resIcon=mxgraph.aws4.elasticloadbalancingv2;" vertex="1" parent="1"><mxGeometry x="750" y="1550" width="50" height="50" as="geometry"/></mxCell><mxCell id="43" value="cluster611F8AFF" style="outlineConnect=0;fontColor=#B3B3B3;gradientColor=#F78E04;gradientDirection=north;fillColor=#D05C17;strokeColor=#ffffff;dashed=0;verticalLabelPosition=bottom;verticalAlign=top;align=center;html=1;fontSize=12;fontStyle=0;aspect=fixed;shape=mxgraph.aws4.resourceIcon;resIcon=mxgraph.aws4.ecs;" vertex="1" parent="1"><mxGeometry x="750" y="1950" width="50" height="50" as="geometry"/></mxCell><mxCell id="44" value="ecsTaskExecutionRole34F54B99" style="outlineConnect=0;fontColor=#B3B3B3;gradientColor=#F54749;gradientDirection=north;fillColor=#C7131F;strokeColor=#ffffff;dashed=0;verticalLabelPosition=bottom;verticalAlign=top;align=center;html=1;fontSize=12;fontStyle=0;aspect=fixed;shape=mxgraph.aws4.resourceIcon;resIcon=mxgraph.aws4.role;" vertex="1" parent="1"><mxGeometry x="1000" y="2050" width="50" height="50" as="geometry"/></mxCell><mxCell id="45" value="taskDef43A87EA0" style="outlineConnect=0;fontColor=#B3B3B3;gradientColor=#F78E04;gradientDirection=north;fillColor=#D05C17;strokeColor=#ffffff;dashed=0;verticalLabelPosition=bottom;verticalAlign=top;align=center;html=1;fontSize=12;fontStyle=0;aspect=fixed;shape=mxgraph.aws4.resourceIcon;resIcon=mxgraph.aws4.ecs;" vertex="1" parent="1"><mxGeometry x="750" y="2050" width="50" height="50" as="geometry"/></mxCell><mxCell id="46" value="taskDefExecutionRole9295A8C0" style="outlineConnect=0;fontColor=#B3B3B3;gradientColor=#F54749;gradientDirection=north;fillColor=#C7131F;strokeColor=#ffffff;dashed=0;verticalLabelPosition=bottom;verticalAlign=top;align=center;html=1;fontSize=12;fontStyle=0;aspect=fixed;shape=mxgraph.aws4.resourceIcon;resIcon=mxgraph.aws4.role;" vertex="1" parent="1"><mxGeometry x="1000" y="1300" width="50" height="50" as="geometry"/></mxCell><mxCell id="47" value="taskDefExecutionRoleDefaultPolicy5FB63CF7" style="outlineConnect=0;fontColor=#B3B3B3;gradientColor=#F54749;gradientDirection=north;fillColor=#C7131F;strokeColor=#ffffff;dashed=0;verticalLabelPosition=bottom;verticalAlign=top;align=center;html=1;fontSize=12;fontStyle=0;aspect=fixed;shape=mxgraph.aws4.resourceIcon;resIcon=mxgraph.aws4.identity_and_access_management;" vertex="1" parent="1"><mxGeometry x="750" y="1650" width="50" height="50" as="geometry"/></mxCell><mxCell id="48" value="taskDefcontainerLogGroup46D582FF" style="outlineConnect=0;fontColor=#B3B3B3;gradientColor=#F34482;gradientDirection=north;fillColor=#BC1356;strokeColor=#ffffff;dashed=0;verticalLabelPosition=bottom;verticalAlign=top;align=center;html=1;fontSize=12;fontStyle=0;aspect=fixed;shape=mxgraph.aws4.resourceIcon;resIcon=mxgraph.aws4.cloudwatch;" vertex="1" parent="1"><mxGeometry x="1000" y="1400" width="50" height="50" as="geometry"/></mxCell><mxCell id="49" value="fargateServiceDNS5EF1DE4A" style="outlineConnect=0;fontColor=#B3B3B3;gradientColor=#945DF2;gradientDirection=north;fillColor=#5A30B5;strokeColor=#ffffff;dashed=0;verticalLabelPosition=bottom;verticalAlign=top;align=center;html=1;fontSize=12;fontStyle=0;aspect=fixed;shape=mxgraph.aws4.resourceIcon;resIcon=mxgraph.aws4.route53;" vertex="1" parent="1"><mxGeometry y="1850" width="50" height="50" as="geometry"/></mxCell><mxCell id="50" value="fargateService93A22105" style="outlineConnect=0;fontColor=#B3B3B3;gradientColor=#F78E04;gradientDirection=north;fillColor=#D05C17;strokeColor=#ffffff;dashed=0;verticalLabelPosition=bottom;verticalAlign=top;align=center;html=1;fontSize=12;fontStyle=0;aspect=fixed;shape=mxgraph.aws4.resourceIcon;resIcon=mxgraph.aws4.ecs;" vertex="1" parent="1"><mxGeometry x="500" y="2300" width="50" height="50" as="geometry"/></mxCell><mxCell id="51" value="EcrRepoBB83A592" style="outlineConnect=0;fontColor=#B3B3B3;gradientColor=#aaaaaa;gradientDirection=north;fillColor=#aaaaaa;strokeColor=#ffffff;dashed=0;verticalLabelPosition=bottom;verticalAlign=top;align=center;html=1;fontSize=12;fontStyle=0;aspect=fixed;shape=mxgraph.aws4.resourceIcon;resIcon=mxgraph.aws4.ecr;" vertex="1" parent="1"><mxGeometry x="750" y="1850" width="50" height="50" as="geometry"/></mxCell><mxCell id="52" value="projectRole1577EB66" style="outlineConnect=0;fontColor=#B3B3B3;gradientColor=#F54749;gradientDirection=north;fillColor=#C7131F;strokeColor=#ffffff;dashed=0;verticalLabelPosition=bottom;verticalAlign=top;align=center;html=1;fontSize=12;fontStyle=0;aspect=fixed;shape=mxgraph.aws4.resourceIcon;resIcon=mxgraph.aws4.role;" vertex="1" parent="1"><mxGeometry x="750" y="1750" width="50" height="50" as="geometry"/></mxCell><mxCell id="53" value="projectRoleDefaultPolicy3F10B507" style="outlineConnect=0;fontColor=#B3B3B3;gradientColor=#F54749;gradientDirection=north;fillColor=#C7131F;strokeColor=#ffffff;dashed=0;verticalLabelPosition=bottom;verticalAlign=top;align=center;html=1;fontSize=12;fontStyle=0;aspect=fixed;shape=mxgraph.aws4.resourceIcon;resIcon=mxgraph.aws4.identity_and_access_management;" vertex="1" parent="1"><mxGeometry x="250" y="1950" width="50" height="50" as="geometry"/></mxCell><mxCell id="54" value="projectC7BA6BD1" style="outlineConnect=0;fontColor=#B3B3B3;gradientColor=#aaaaaa;gradientDirection=north;fillColor=#aaaaaa;strokeColor=#ffffff;dashed=0;verticalLabelPosition=bottom;verticalAlign=top;align=center;html=1;fontSize=12;fontStyle=0;aspect=fixed;shape=mxgraph.aws4.resourceIcon;resIcon=mxgraph.aws4.codebuild;" vertex="1" parent="1"><mxGeometry x="500" y="1900" width="50" height="50" as="geometry"/></mxCell><mxCell id="55" value="SourceAssetBucket61A8AEF8" style="outlineConnect=0;fontColor=#B3B3B3;gradientColor=#60A337;gradientDirection=north;fillColor=#277116;strokeColor=#ffffff;dashed=0;verticalLabelPosition=bottom;verticalAlign=top;align=center;html=1;fontSize=12;fontStyle=0;aspect=fixed;shape=mxgraph.aws4.resourceIcon;resIcon=mxgraph.aws4.s3;" vertex="1" parent="1"><mxGeometry x="250" y="2200" width="50" height="50" as="geometry"/></mxCell><mxCell id="56" value="PipelineArtifactsBucketC4BB9BE3" style="outlineConnect=0;fontColor=#B3B3B3;gradientColor=#60A337;gradientDirection=north;fillColor=#277116;strokeColor=#ffffff;dashed=0;verticalLabelPosition=bottom;verticalAlign=top;align=center;html=1;fontSize=12;fontStyle=0;aspect=fixed;shape=mxgraph.aws4.resourceIcon;resIcon=mxgraph.aws4.s3;" vertex="1" parent="1"><mxGeometry x="500" y="2000" width="50" height="50" as="geometry"/></mxCell><mxCell id="57" value="CodeBuildRole728CBADE" style="outlineConnect=0;fontColor=#B3B3B3;gradientColor=#F54749;gradientDirection=north;fillColor=#C7131F;strokeColor=#ffffff;dashed=0;verticalLabelPosition=bottom;verticalAlign=top;align=center;html=1;fontSize=12;fontStyle=0;aspect=fixed;shape=mxgraph.aws4.resourceIcon;resIcon=mxgraph.aws4.role;" vertex="1" parent="1"><mxGeometry x="250" y="2050" width="50" height="50" as="geometry"/></mxCell><mxCell id="58" value="CodeBuildRoleDefaultPolicy829527DE" style="outlineConnect=0;fontColor=#B3B3B3;gradientColor=#F54749;gradientDirection=north;fillColor=#C7131F;strokeColor=#ffffff;dashed=0;verticalLabelPosition=bottom;verticalAlign=top;align=center;html=1;fontSize=12;fontStyle=0;aspect=fixed;shape=mxgraph.aws4.resourceIcon;resIcon=mxgraph.aws4.identity_and_access_management;" vertex="1" parent="1"><mxGeometry y="1950" width="50" height="50" as="geometry"/></mxCell><mxCell id="59" value="CodePipelineRoleB31C27BE" style="outlineConnect=0;fontColor=#B3B3B3;gradientColor=#F54749;gradientDirection=north;fillColor=#C7131F;strokeColor=#ffffff;dashed=0;verticalLabelPosition=bottom;verticalAlign=top;align=center;html=1;fontSize=12;fontStyle=0;aspect=fixed;shape=mxgraph.aws4.resourceIcon;resIcon=mxgraph.aws4.role;" vertex="1" parent="1"><mxGeometry x="500" y="2100" width="50" height="50" as="geometry"/></mxCell><mxCell id="60" value="CodePipelineRoleDefaultPolicy2731C56D" style="outlineConnect=0;fontColor=#B3B3B3;gradientColor=#F54749;gradientDirection=north;fillColor=#C7131F;strokeColor=#ffffff;dashed=0;verticalLabelPosition=bottom;verticalAlign=top;align=center;html=1;fontSize=12;fontStyle=0;aspect=fixed;shape=mxgraph.aws4.resourceIcon;resIcon=mxgraph.aws4.identity_and_access_management;" vertex="1" parent="1"><mxGeometry y="2050" width="50" height="50" as="geometry"/></mxCell><mxCell id="61" value="AssetsCodePipelineC9CF3FAA" style="outlineConnect=0;fontColor=#B3B3B3;gradientColor=#aaaaaa;gradientDirection=north;fillColor=#aaaaaa;strokeColor=#ffffff;dashed=0;verticalLabelPosition=bottom;verticalAlign=top;align=center;html=1;fontSize=12;fontStyle=0;aspect=fixed;shape=mxgraph.aws4.resourceIcon;resIcon=mxgraph.aws4.codepipeline;" vertex="1" parent="1"><mxGeometry x="250" y="2550" width="50" height="50" as="geometry"/></mxCell><mxCell id="62" value="AssetsCodePipelineSourceGitHubSourceWebhookResource6EE4E222" style="outlineConnect=0;fontColor=#B3B3B3;gradientColor=#aaaaaa;gradientDirection=north;fillColor=#aaaaaa;strokeColor=#ffffff;dashed=0;verticalLabelPosition=bottom;verticalAlign=top;align=center;html=1;fontSize=12;fontStyle=0;aspect=fixed;shape=mxgraph.aws4.resourceIcon;resIcon=mxgraph.aws4.codepipeline;" vertex="1" parent="1"><mxGeometry y="2550" width="50" height="50" as="geometry"/></mxCell><mxCell id="63" value="AssetsCodePipelineBuildbuildanddeployCodePipelineActionRoleE74C0347" style="outlineConnect=0;fontColor=#B3B3B3;gradientColor=#F54749;gradientDirection=north;fillColor=#C7131F;strokeColor=#ffffff;dashed=0;verticalLabelPosition=bottom;verticalAlign=top;align=center;html=1;fontSize=12;fontStyle=0;aspect=fixed;shape=mxgraph.aws4.resourceIcon;resIcon=mxgraph.aws4.role;" vertex="1" parent="1"><mxGeometry x="500" y="2200" width="50" height="50" as="geometry"/></mxCell><mxCell id="64" value="AssetsCodePipelineBuildbuildanddeployCodePipelineActionRoleDefaultPolicyA4768945" style="outlineConnect=0;fontColor=#B3B3B3;gradientColor=#F54749;gradientDirection=north;fillColor=#C7131F;strokeColor=#ffffff;dashed=0;verticalLabelPosition=bottom;verticalAlign=top;align=center;html=1;fontSize=12;fontStyle=0;aspect=fixed;shape=mxgraph.aws4.resourceIcon;resIcon=mxgraph.aws4.identity_and_access_management;" vertex="1" parent="1"><mxGeometry x="250" y="2400" width="50" height="50" as="geometry"/></mxCell><mxCell id="65" value="AssetsCodePipelineDeploytoECSDeployActionCodePipelineActionRole08608417" style="outlineConnect=0;fontColor=#B3B3B3;gradientColor=#F54749;gradientDirection=north;fillColor=#C7131F;strokeColor=#ffffff;dashed=0;verticalLabelPosition=bottom;verticalAlign=top;align=center;html=1;fontSize=12;fontStyle=0;aspect=fixed;shape=mxgraph.aws4.resourceIcon;resIcon=mxgraph.aws4.role;" vertex="1" parent="1"><mxGeometry x="500" y="2650" width="50" height="50" as="geometry"/></mxCell><mxCell id="66" value="AssetsCodePipelineDeploytoECSDeployActionCodePipelineActionRoleDefaultPolicyE62EC8F0" style="outlineConnect=0;fontColor=#B3B3B3;gradientColor=#F54749;gradientDirection=north;fillColor=#C7131F;strokeColor=#ffffff;dashed=0;verticalLabelPosition=bottom;verticalAlign=top;align=center;html=1;fontSize=12;fontStyle=0;aspect=fixed;shape=mxgraph.aws4.resourceIcon;resIcon=mxgraph.aws4.identity_and_access_management;" vertex="1" parent="1"><mxGeometry x="250" y="2650" width="50" height="50" as="geometry"/></mxCell><mxCell id="67" value="CDKMetadata" style="outlineConnect=0;fontColor=#B3B3B3;gradientColor=#aaaaaa;gradientDirection=north;fillColor=#aaaaaa;strokeColor=#ffffff;dashed=0;verticalLabelPosition=bottom;verticalAlign=top;align=center;html=1;fontSize=12;fontStyle=0;aspect=fixed;shape=mxgraph.aws4.resourceIcon;resIcon=mxgraph.aws4.cdk;" vertex="1" parent="1"><mxGeometry y="2850" width="50" height="50" as="geometry"/></mxCell><mxCell id="vpcA2121C38|vpcPublicSubnet1Subnet2E65531E" value="VpcId" style="edgeStyle=orthogonalEdgeStyle;rounded=1;orthogonalLoop=1;jettySize=auto;html=1;labelBackgroundColor=none;fontColor=#EA6B66;noEdgeStyle=1;orthogonal=1;" edge="1" parent="1" source="3" target="2"><mxGeometry relative="1" as="geometry"><Array as="points"><mxPoint x="812" y="1025"/><mxPoint x="976" y="989.2857142857142"/></Array></mxGeometry></mxCell><mxCell id="vpcA2121C38|vpcPublicSubnet1RouteTable48A2DF9B" value="VpcId" style="edgeStyle=orthogonalEdgeStyle;rounded=1;orthogonalLoop=1;jettySize=auto;html=1;labelBackgroundColor=none;fontColor=#EA6B66;noEdgeStyle=1;orthogonal=1;" edge="1" parent="1" source="4" target="2"><mxGeometry relative="1" as="geometry"><Array as="points"><mxPoint x="312" y="75"/><mxPoint x="400" y="300"/><mxPoint x="650" y="300"/><mxPoint x="650" y="300"/><mxPoint x="900" y="300"/><mxPoint x="988" y="964.2857142857143"/></Array></mxGeometry></mxCell><mxCell id="vpcPublicSubnet1RouteTable48A2DF9B|vpcPublicSubnet1RouteTableAssociation5D3F4579" value="RouteTableId" style="edgeStyle=orthogonalEdgeStyle;rounded=1;orthogonalLoop=1;jettySize=auto;html=1;labelBackgroundColor=none;fontColor=#EA6B66;noEdgeStyle=1;orthogonal=1;" edge="1" parent="1" source="5" target="4"><mxGeometry relative="1" as="geometry"><Array as="points"><mxPoint x="62" y="47.5"/><mxPoint x="238" y="65"/></Array></mxGeometry></mxCell><mxCell id="vpcPublicSubnet1Subnet2E65531E|vpcPublicSubnet1RouteTableAssociation5D3F4579" value="SubnetId" style="edgeStyle=orthogonalEdgeStyle;rounded=1;orthogonalLoop=1;jettySize=auto;html=1;labelBackgroundColor=none;fontColor=#EA6B66;noEdgeStyle=1;orthogonal=1;" edge="1" parent="1" source="5" target="3"><mxGeometry relative="1" as="geometry"><Array as="points"><mxPoint x="62" y="27.5"/><mxPoint x="150"/><mxPoint x="400"/><mxPoint x="400"/><mxPoint x="650"/><mxPoint x="738" y="1009"/></Array></mxGeometry></mxCell><mxCell id="vpcPublicSubnet1RouteTable48A2DF9B|vpcPublicSubnet1DefaultRoute10708846" value="RouteTableId" style="edgeStyle=orthogonalEdgeStyle;rounded=1;orthogonalLoop=1;jettySize=auto;html=1;labelBackgroundColor=none;fontColor=#EA6B66;noEdgeStyle=1;orthogonal=1;" edge="1" parent="1" source="6" target="4"><mxGeometry relative="1" as="geometry"><Array as="points"><mxPoint x="62" y="190"/><mxPoint x="238" y="85"/></Array></mxGeometry></mxCell><mxCell id="vpcIGWE57CBDCA|vpcPublicSubnet1DefaultRoute10708846" value="GatewayId" style="edgeStyle=orthogonalEdgeStyle;rounded=1;orthogonalLoop=1;jettySize=auto;html=1;labelBackgroundColor=none;fontColor=#EA6B66;noEdgeStyle=1;orthogonal=1;" edge="1" parent="1" source="6" target="21"><mxGeometry relative="1" as="geometry"><Array as="points"><mxPoint x="62" y="210"/><mxPoint x="238" y="311.6666666666667"/></Array></mxGeometry></mxCell><mxCell id="vpcPublicSubnet1Subnet2E65531E|vpcPublicSubnet1NATGateway9C16659E" value="SubnetId" style="edgeStyle=orthogonalEdgeStyle;rounded=1;orthogonalLoop=1;jettySize=auto;html=1;labelBackgroundColor=none;fontColor=#EA6B66;noEdgeStyle=1;orthogonal=1;" edge="1" parent="1" source="8" target="3"><mxGeometry relative="1" as="geometry"><Array as="points"><mxPoint x="312" y="565"/><mxPoint x="400" y="550"/><mxPoint x="650" y="550"/><mxPoint x="736" y="1017"/></Array></mxGeometry></mxCell><mxCell id="vpcPublicSubnet1EIPDA49DCBE|vpcPublicSubnet1NATGateway9C16659E" value="AllocationId" style="edgeStyle=orthogonalEdgeStyle;rounded=1;orthogonalLoop=1;jettySize=auto;html=1;labelBackgroundColor=none;fontColor=#EA6B66;noEdgeStyle=1;orthogonal=1;" edge="1" parent="1" source="8" target="7"><mxGeometry relative="1" as="geometry"><Array as="points"><mxPoint x="312" y="585"/><mxPoint x="488" y="625"/></Array></mxGeometry></mxCell><mxCell id="vpcA2121C38|vpcPublicSubnet2Subnet009B674F" value="VpcId" style="edgeStyle=orthogonalEdgeStyle;rounded=1;orthogonalLoop=1;jettySize=auto;html=1;labelBackgroundColor=none;fontColor=#EA6B66;noEdgeStyle=1;orthogonal=1;" edge="1" parent="1" source="9" target="2"><mxGeometry relative="1" as="geometry"><Array as="points"><mxPoint x="812" y="1125"/><mxPoint x="978" y="992.8571428571428"/></Array></mxGeometry></mxCell><mxCell id="vpcA2121C38|vpcPublicSubnet2RouteTableEB40D4CB" value="VpcId" style="edgeStyle=orthogonalEdgeStyle;rounded=1;orthogonalLoop=1;jettySize=auto;html=1;labelBackgroundColor=none;fontColor=#EA6B66;noEdgeStyle=1;orthogonal=1;" edge="1" parent="1" source="10" target="2"><mxGeometry relative="1" as="geometry"><Array as="points"><mxPoint x="312" y="225"/><mxPoint x="400" y="400"/><mxPoint x="650" y="400"/><mxPoint x="650" y="400"/><mxPoint x="900" y="400"/><mxPoint x="986" y="967.8571428571429"/></Array></mxGeometry></mxCell><mxCell id="vpcPublicSubnet2RouteTableEB40D4CB|vpcPublicSubnet2RouteTableAssociation21F81B59" value="RouteTableId" style="edgeStyle=orthogonalEdgeStyle;rounded=1;orthogonalLoop=1;jettySize=auto;html=1;labelBackgroundColor=none;fontColor=#EA6B66;noEdgeStyle=1;orthogonal=1;" edge="1" parent="1" source="11" target="10"><mxGeometry relative="1" as="geometry"><Array as="points"><mxPoint x="62" y="310"/><mxPoint x="238" y="215"/></Array></mxGeometry></mxCell><mxCell id="vpcPublicSubnet2Subnet009B674F|vpcPublicSubnet2RouteTableAssociation21F81B59" value="SubnetId" style="edgeStyle=orthogonalEdgeStyle;rounded=1;orthogonalLoop=1;jettySize=auto;html=1;labelBackgroundColor=none;fontColor=#EA6B66;noEdgeStyle=1;orthogonal=1;" edge="1" parent="1" source="11" target="9"><mxGeometry relative="1" as="geometry"><Array as="points"><mxPoint x="62" y="290"/><mxPoint x="150" y="150"/><mxPoint x="400" y="150"/><mxPoint x="400" y="350"/><mxPoint x="650" y="350"/><mxPoint x="738" y="1111.6666666666667"/></Array></mxGeometry></mxCell><mxCell id="vpcPublicSubnet2RouteTableEB40D4CB|vpcPublicSubnet2DefaultRouteA1EC0F60" value="RouteTableId" style="edgeStyle=orthogonalEdgeStyle;rounded=1;orthogonalLoop=1;jettySize=auto;html=1;labelBackgroundColor=none;fontColor=#EA6B66;noEdgeStyle=1;orthogonal=1;" edge="1" parent="1" source="12" target="10"><mxGeometry relative="1" as="geometry"><Array as="points"><mxPoint x="62" y="390"/><mxPoint x="238" y="235"/></Array></mxGeometry></mxCell><mxCell id="vpcIGWE57CBDCA|vpcPublicSubnet2DefaultRouteA1EC0F60" value="GatewayId" style="edgeStyle=orthogonalEdgeStyle;rounded=1;orthogonalLoop=1;jettySize=auto;html=1;labelBackgroundColor=none;fontColor=#EA6B66;noEdgeStyle=1;orthogonal=1;" edge="1" parent="1" source="12" target="21"><mxGeometry relative="1" as="geometry"><Array as="points"><mxPoint x="62" y="410"/><mxPoint x="236" y="325"/></Array></mxGeometry></mxCell><mxCell id="vpcA2121C38|vpcPrivateSubnet1Subnet934893E8" value="VpcId" style="edgeStyle=orthogonalEdgeStyle;rounded=1;orthogonalLoop=1;jettySize=auto;html=1;labelBackgroundColor=none;fontColor=#EA6B66;noEdgeStyle=1;orthogonal=1;" edge="1" parent="1" source="13" target="2"><mxGeometry relative="1" as="geometry"><Array as="points"><mxPoint x="812" y="1225"/><mxPoint x="980" y="996.4285714285713"/></Array></mxGeometry></mxCell><mxCell id="vpcA2121C38|vpcPrivateSubnet1RouteTableB41A48CC" value="VpcId" style="edgeStyle=orthogonalEdgeStyle;rounded=1;orthogonalLoop=1;jettySize=auto;html=1;labelBackgroundColor=none;fontColor=#EA6B66;noEdgeStyle=1;orthogonal=1;" edge="1" parent="1" source="14" target="2"><mxGeometry relative="1" as="geometry"><Array as="points"><mxPoint x="312" y="475"/><mxPoint x="400" y="500"/><mxPoint x="650" y="500"/><mxPoint x="650" y="500"/><mxPoint x="900" y="500"/><mxPoint x="984" y="971.4285714285714"/></Array></mxGeometry></mxCell><mxCell id="vpcPrivateSubnet1RouteTableB41A48CC|vpcPrivateSubnet1RouteTableAssociation67945127" value="RouteTableId" style="edgeStyle=orthogonalEdgeStyle;rounded=1;orthogonalLoop=1;jettySize=auto;html=1;labelBackgroundColor=none;fontColor=#EA6B66;noEdgeStyle=1;orthogonal=1;" edge="1" parent="1" source="15" target="14"><mxGeometry relative="1" as="geometry"><Array as="points"><mxPoint x="62" y="510"/><mxPoint x="238" y="465"/></Array></mxGeometry></mxCell><mxCell id="vpcPrivateSubnet1Subnet934893E8|vpcPrivateSubnet1RouteTableAssociation67945127" value="SubnetId" style="edgeStyle=orthogonalEdgeStyle;rounded=1;orthogonalLoop=1;jettySize=auto;html=1;labelBackgroundColor=none;fontColor=#EA6B66;noEdgeStyle=1;orthogonal=1;" edge="1" parent="1" source="15" target="13"><mxGeometry relative="1" as="geometry"><Array as="points"><mxPoint x="62" y="490"/><mxPoint x="150" y="400"/><mxPoint x="400" y="400"/><mxPoint x="400" y="450"/><mxPoint x="650" y="450"/><mxPoint x="738" y="1215"/></Array></mxGeometry></mxCell><mxCell id="vpcPrivateSubnet1RouteTableB41A48CC|vpcPrivateSubnet1DefaultRoute1AA8E2E5" value="RouteTableId" style="edgeStyle=orthogonalEdgeStyle;rounded=1;orthogonalLoop=1;jettySize=auto;html=1;labelBackgroundColor=none;fontColor=#EA6B66;noEdgeStyle=1;orthogonal=1;" edge="1" parent="1" source="16" target="14"><mxGeometry relative="1" as="geometry"><Array as="points"><mxPoint x="62" y="590"/><mxPoint x="238" y="485"/></Array></mxGeometry></mxCell><mxCell id="vpcPublicSubnet1NATGateway9C16659E|vpcPrivateSubnet1DefaultRoute1AA8E2E5" value="NatGatewayId" style="edgeStyle=orthogonalEdgeStyle;rounded=1;orthogonalLoop=1;jettySize=auto;html=1;labelBackgroundColor=none;fontColor=#EA6B66;noEdgeStyle=1;orthogonal=1;" edge="1" parent="1" source="16" target="8"><mxGeometry relative="1" as="geometry"><Array as="points"><mxPoint x="62" y="610"/><mxPoint x="238" y="565"/></Array></mxGeometry></mxCell><mxCell id="vpcA2121C38|vpcPrivateSubnet2Subnet7031C2BA" value="VpcId" style="edgeStyle=orthogonalEdgeStyle;rounded=1;orthogonalLoop=1;jettySize=auto;html=1;labelBackgroundColor=none;fontColor=#EA6B66;noEdgeStyle=1;orthogonal=1;" edge="1" parent="1" source="17" target="2"><mxGeometry relative="1" as="geometry"><Array as="points"><mxPoint x="812" y="1325"/><mxPoint x="982" y="999.9999999999999"/></Array></mxGeometry></mxCell><mxCell id="vpcA2121C38|vpcPrivateSubnet2RouteTable7280F23E" value="VpcId" style="edgeStyle=orthogonalEdgeStyle;rounded=1;orthogonalLoop=1;jettySize=auto;html=1;labelBackgroundColor=none;fontColor=#EA6B66;noEdgeStyle=1;orthogonal=1;" edge="1" parent="1" source="18" target="2"><mxGeometry relative="1" as="geometry"><Array as="points"><mxPoint x="312" y="725"/><mxPoint x="400" y="750"/><mxPoint x="650" y="750"/><mxPoint x="650" y="750"/><mxPoint x="900" y="750"/><mxPoint x="982" y="975"/></Array></mxGeometry></mxCell><mxCell id="vpcPrivateSubnet2RouteTable7280F23E|vpcPrivateSubnet2RouteTableAssociation007E94D3" value="RouteTableId" style="edgeStyle=orthogonalEdgeStyle;rounded=1;orthogonalLoop=1;jettySize=auto;html=1;labelBackgroundColor=none;fontColor=#EA6B66;noEdgeStyle=1;orthogonal=1;" edge="1" parent="1" source="19" target="18"><mxGeometry relative="1" as="geometry"><Array as="points"><mxPoint x="62" y="810"/><mxPoint x="238" y="735"/></Array></mxGeometry></mxCell><mxCell id="vpcPrivateSubnet2Subnet7031C2BA|vpcPrivateSubnet2RouteTableAssociation007E94D3" value="SubnetId" style="edgeStyle=orthogonalEdgeStyle;rounded=1;orthogonalLoop=1;jettySize=auto;html=1;labelBackgroundColor=none;fontColor=#EA6B66;noEdgeStyle=1;orthogonal=1;" edge="1" parent="1" source="19" target="17"><mxGeometry relative="1" as="geometry"><Array as="points"><mxPoint x="62" y="790"/><mxPoint x="150" y="650"/><mxPoint x="400" y="650"/><mxPoint x="400" y="700"/><mxPoint x="650" y="700"/><mxPoint x="738" y="1315"/></Array></mxGeometry></mxCell><mxCell id="vpcPrivateSubnet2RouteTable7280F23E|vpcPrivateSubnet2DefaultRouteB0E07F99" value="RouteTableId" style="edgeStyle=orthogonalEdgeStyle;rounded=1;orthogonalLoop=1;jettySize=auto;html=1;labelBackgroundColor=none;fontColor=#EA6B66;noEdgeStyle=1;orthogonal=1;" edge="1" parent="1" source="20" target="18"><mxGeometry relative="1" as="geometry"><Array as="points"><mxPoint x="62" y="710"/><mxPoint x="238" y="715"/></Array></mxGeometry></mxCell><mxCell id="vpcPublicSubnet1NATGateway9C16659E|vpcPrivateSubnet2DefaultRouteB0E07F99" value="NatGatewayId" style="edgeStyle=orthogonalEdgeStyle;rounded=1;orthogonalLoop=1;jettySize=auto;html=1;labelBackgroundColor=none;fontColor=#EA6B66;noEdgeStyle=1;orthogonal=1;" edge="1" parent="1" source="20" target="8"><mxGeometry relative="1" as="geometry"><Array as="points"><mxPoint x="62" y="690"/><mxPoint x="238" y="585"/></Array></mxGeometry></mxCell><mxCell id="vpcA2121C38|vpcVPCGW7984C166" value="VpcId" style="edgeStyle=orthogonalEdgeStyle;rounded=1;orthogonalLoop=1;jettySize=auto;html=1;labelBackgroundColor=none;fontColor=#EA6B66;noEdgeStyle=1;orthogonal=1;" edge="1" parent="1" source="22" target="2"><mxGeometry relative="1" as="geometry"><Array as="points"><mxPoint x="62" y="910"/><mxPoint x="150" y="800"/><mxPoint x="400" y="800"/><mxPoint x="400" y="800"/><mxPoint x="650" y="800"/><mxPoint x="650" y="800"/><mxPoint x="900" y="800"/><mxPoint x="980" y="978.5714285714286"/></Array></mxGeometry></mxCell><mxCell id="vpcIGWE57CBDCA|vpcVPCGW7984C166" value="InternetGatewayId" style="edgeStyle=orthogonalEdgeStyle;rounded=1;orthogonalLoop=1;jettySize=auto;html=1;labelBackgroundColor=none;fontColor=#EA6B66;noEdgeStyle=1;orthogonal=1;" edge="1" parent="1" source="22" target="21"><mxGeometry relative="1" as="geometry"><Array as="points"><mxPoint x="62" y="890"/><mxPoint x="238" y="338.3333333333333"/></Array></mxGeometry></mxCell><mxCell id="vpcA2121C38|ProxytoDBConnectionC580BD64" value="VpcId" style="edgeStyle=orthogonalEdgeStyle;rounded=1;orthogonalLoop=1;jettySize=auto;html=1;labelBackgroundColor=none;fontColor=#EA6B66;noEdgeStyle=1;orthogonal=1;" edge="1" parent="1" source="23" target="2"><mxGeometry relative="1" as="geometry"><Array as="points"><mxPoint x="562" y="925"/><mxPoint x="650" y="900"/><mxPoint x="900" y="900"/><mxPoint x="978" y="982.1428571428571"/></Array></mxGeometry></mxCell><mxCell id="ProxytoDBConnectionC580BD64|ProxytoDBConnectionfromCDKSpringPipelineProxytoDBConnectionB45DD4085432F12BFB4D" value="GroupId&#xA;SourceSecurityGroupId" style="edgeStyle=orthogonalEdgeStyle;rounded=1;orthogonalLoop=1;jettySize=auto;html=1;labelBackgroundColor=none;fontColor=#EA6B66;noEdgeStyle=1;orthogonal=1;" edge="1" parent="1" source="24" target="23"><mxGeometry relative="1" as="geometry"><Array as="points"><mxPoint x="312" y="975"/><mxPoint x="486" y="920"/></Array></mxGeometry></mxCell><mxCell id="ProxytoDBConnectionC580BD64|ProxytoDBConnectionfromCDKSpringPipelineECStoDBConnection42FB00B354320034E974" value="GroupId" style="edgeStyle=orthogonalEdgeStyle;rounded=1;orthogonalLoop=1;jettySize=auto;html=1;labelBackgroundColor=none;fontColor=#EA6B66;noEdgeStyle=1;orthogonal=1;" edge="1" parent="1" source="25" target="23"><mxGeometry relative="1" as="geometry"><Array as="points"><mxPoint x="312" y="885"/><mxPoint x="488" y="910"/></Array></mxGeometry></mxCell><mxCell id="ECStoDBConnection6EF693BD|ProxytoDBConnectionfromCDKSpringPipelineECStoDBConnection42FB00B354320034E974" value="SourceSecurityGroupId" style="edgeStyle=orthogonalEdgeStyle;rounded=1;orthogonalLoop=1;jettySize=auto;html=1;labelBackgroundColor=none;fontColor=#EA6B66;noEdgeStyle=1;orthogonal=1;" edge="1" parent="1" source="25" target="27"><mxGeometry relative="1" as="geometry"><Array as="points"><mxPoint x="312" y="865"/><mxPoint x="400" y="850"/><mxPoint x="650" y="850"/><mxPoint x="738" y="1410"/></Array></mxGeometry></mxCell><mxCell id="ProxytoDBConnectionC580BD64|ProxytoDBConnectionfromCDKSpringPipelinebastiontoDBConnectionDA527A7B5432092B6E2C" value="GroupId" style="edgeStyle=orthogonalEdgeStyle;rounded=1;orthogonalLoop=1;jettySize=auto;html=1;labelBackgroundColor=none;fontColor=#EA6B66;noEdgeStyle=1;orthogonal=1;" edge="1" parent="1" source="26" target="23"><mxGeometry relative="1" as="geometry"><Array as="points"><mxPoint x="62" y="1077.5"/><mxPoint x="150" y="1050"/><mxPoint x="400" y="1050"/><mxPoint x="486" y="930"/></Array></mxGeometry></mxCell><mxCell id="bastiontoDBConnection164C5876|ProxytoDBConnectionfromCDKSpringPipelinebastiontoDBConnectionDA527A7B5432092B6E2C" value="SourceSecurityGroupId" style="edgeStyle=orthogonalEdgeStyle;rounded=1;orthogonalLoop=1;jettySize=auto;html=1;labelBackgroundColor=none;fontColor=#EA6B66;noEdgeStyle=1;orthogonal=1;" edge="1" parent="1" source="26" target="29"><mxGeometry relative="1" as="geometry"><Array as="points"><mxPoint x="62" y="1097.5"/><mxPoint x="238" y="1115"/></Array></mxGeometry></mxCell><mxCell id="vpcA2121C38|ECStoDBConnection6EF693BD" value="VpcId" style="edgeStyle=orthogonalEdgeStyle;rounded=1;orthogonalLoop=1;jettySize=auto;html=1;labelBackgroundColor=none;fontColor=#EA6B66;noEdgeStyle=1;orthogonal=1;" edge="1" parent="1" source="27" target="2"><mxGeometry relative="1" as="geometry"><Array as="points"><mxPoint x="812" y="1425"/><mxPoint x="984" y="1003.5714285714284"/></Array></mxGeometry></mxCell><mxCell id="ECStoDBConnection6EF693BD|ECStoDBConnectionfromCDKSpringPipelineLBSecurityGroupA37A9B6B808056786AA8" value="GroupId" style="edgeStyle=orthogonalEdgeStyle;rounded=1;orthogonalLoop=1;jettySize=auto;html=1;labelBackgroundColor=none;fontColor=#EA6B66;noEdgeStyle=1;orthogonal=1;" edge="1" parent="1" source="28" target="27"><mxGeometry relative="1" as="geometry"><Array as="points"><mxPoint x="312" y="1215"/><mxPoint x="400" y="1050"/><mxPoint x="650" y="1050"/><mxPoint x="736" y="1420"/></Array></mxGeometry></mxCell><mxCell id="LBSecurityGroup8A41EA2B|ECStoDBConnectionfromCDKSpringPipelineLBSecurityGroupA37A9B6B808056786AA8" value="SourceSecurityGroupId" style="edgeStyle=orthogonalEdgeStyle;rounded=1;orthogonalLoop=1;jettySize=auto;html=1;labelBackgroundColor=none;fontColor=#EA6B66;noEdgeStyle=1;orthogonal=1;" edge="1" parent="1" source="28" target="39"><mxGeometry relative="1" as="geometry"><Array as="points"><mxPoint x="312" y="1235"/><mxPoint x="488" y="1511.6666666666667"/></Array></mxGeometry></mxCell><mxCell id="vpcA2121C38|bastiontoDBConnection164C5876" value="VpcId" style="edgeStyle=orthogonalEdgeStyle;rounded=1;orthogonalLoop=1;jettySize=auto;html=1;labelBackgroundColor=none;fontColor=#EA6B66;noEdgeStyle=1;orthogonal=1;" edge="1" parent="1" source="29" target="2"><mxGeometry relative="1" as="geometry"><Array as="points"><mxPoint x="312" y="1125"/><mxPoint x="400" y="1000"/><mxPoint x="650" y="1000"/><mxPoint x="650" y="950"/><mxPoint x="900" y="950"/><mxPoint x="976" y="985.7142857142857"/></Array></mxGeometry></mxCell><mxCell id="vpcPublicSubnet1Subnet2E65531E|InstanceWithUsernameSubnetGroup594E24DA" value="SubnetIds" style="edgeStyle=orthogonalEdgeStyle;rounded=1;orthogonalLoop=1;jettySize=auto;html=1;labelBackgroundColor=none;fontColor=#EA6B66;noEdgeStyle=1;orthogonal=1;" edge="1" parent="1" source="30" target="3"><mxGeometry relative="1" as="geometry"><Array as="points"><mxPoint x="562" y="1215"/><mxPoint x="734" y="1025"/></Array></mxGeometry></mxCell><mxCell id="vpcPublicSubnet2Subnet009B674F|InstanceWithUsernameSubnetGroup594E24DA" value="SubnetIds" style="edgeStyle=orthogonalEdgeStyle;rounded=1;orthogonalLoop=1;jettySize=auto;html=1;labelBackgroundColor=none;fontColor=#EA6B66;noEdgeStyle=1;orthogonal=1;" edge="1" parent="1" source="30" target="9"><mxGeometry relative="1" as="geometry"><Array as="points"><mxPoint x="562" y="1235"/><mxPoint x="736" y="1125"/></Array></mxGeometry></mxCell><mxCell id="CDKSpringPipelineInstanceWithUsernameSecret832EB6F13fdaad7efa858a3daf9490cf0a702aeb|InstanceWithUsernameSecretAttachment5A81FDA1" value="SecretId" style="edgeStyle=orthogonalEdgeStyle;rounded=1;orthogonalLoop=1;jettySize=auto;html=1;labelBackgroundColor=none;fontColor=#EA6B66;noEdgeStyle=1;orthogonal=1;" edge="1" parent="1" source="32" target="31"><mxGeometry relative="1" as="geometry"><Array as="points"><mxPoint x="62" y="1327.5"/><mxPoint x="150" y="1300"/><mxPoint x="400" y="1300"/><mxPoint x="488" y="1115"/></Array></mxGeometry></mxCell><mxCell id="InstanceWithUsernameA51968DB|InstanceWithUsernameSecretAttachment5A81FDA1" value="TargetId" style="edgeStyle=orthogonalEdgeStyle;rounded=1;orthogonalLoop=1;jettySize=auto;html=1;labelBackgroundColor=none;fontColor=#EA6B66;noEdgeStyle=1;orthogonal=1;" edge="1" parent="1" source="32" target="33"><mxGeometry relative="1" as="geometry"><Array as="points"><mxPoint x="62" y="1347.5"/><mxPoint x="238" y="1375"/></Array></mxGeometry></mxCell><mxCell id="InstanceWithUsernameSubnetGroup594E24DA|InstanceWithUsernameA51968DB" value="DBSubnetGroupName" style="edgeStyle=orthogonalEdgeStyle;rounded=1;orthogonalLoop=1;jettySize=auto;html=1;labelBackgroundColor=none;fontColor=#EA6B66;noEdgeStyle=1;orthogonal=1;" edge="1" parent="1" source="33" target="30"><mxGeometry relative="1" as="geometry"><Array as="points"><mxPoint x="312" y="1388.3333333333333"/><mxPoint x="488" y="1225"/></Array></mxGeometry></mxCell><mxCell id="CDKSpringPipelineInstanceWithUsernameSecret832EB6F13fdaad7efa858a3daf9490cf0a702aeb|InstanceWithUsernameA51968DB" value="MasterUserPassword" style="edgeStyle=orthogonalEdgeStyle;rounded=1;orthogonalLoop=1;jettySize=auto;html=1;labelBackgroundColor=none;fontColor=#EA6B66;noEdgeStyle=1;orthogonal=1;" edge="1" parent="1" source="33" target="31"><mxGeometry relative="1" as="geometry"><Array as="points"><mxPoint x="314" y="1375"/><mxPoint x="488" y="1135"/></Array></mxGeometry></mxCell><mxCell id="ProxytoDBConnectionC580BD64|InstanceWithUsernameA51968DB" value="VPCSecurityGroups" style="edgeStyle=orthogonalEdgeStyle;rounded=1;orthogonalLoop=1;jettySize=auto;html=1;labelBackgroundColor=none;fontColor=#EA6B66;noEdgeStyle=1;orthogonal=1;" edge="1" parent="1" source="33" target="23"><mxGeometry relative="1" as="geometry"><Array as="points"><mxPoint x="312" y="1361.6666666666667"/><mxPoint x="488" y="940"/></Array></mxGeometry></mxCell><mxCell id="bastionInstanceRole5FE40889|bastionInstanceRoleDefaultPolicyAF88F25C" value="Roles" style="edgeStyle=orthogonalEdgeStyle;rounded=1;orthogonalLoop=1;jettySize=auto;html=1;labelBackgroundColor=none;fontColor=#EA6B66;noEdgeStyle=1;orthogonal=1;" edge="1" parent="1" source="35" target="34"><mxGeometry relative="1" as="geometry"><Array as="points"><mxPoint x="312" y="1475"/><mxPoint x="488" y="1315"/></Array></mxGeometry></mxCell><mxCell id="bastionInstanceRole5FE40889|bastionInstanceProfileE50CD38E" value="Roles" style="edgeStyle=orthogonalEdgeStyle;rounded=1;orthogonalLoop=1;jettySize=auto;html=1;labelBackgroundColor=none;fontColor=#EA6B66;noEdgeStyle=1;orthogonal=1;" edge="1" parent="1" source="36" target="34"><mxGeometry relative="1" as="geometry"><Array as="points"><mxPoint x="312" y="1575"/><mxPoint x="488" y="1335"/></Array></mxGeometry></mxCell><mxCell id="bastionInstanceProfileE50CD38E|bastion2B0A2D9E" value="IamInstanceProfile" style="edgeStyle=orthogonalEdgeStyle;rounded=1;orthogonalLoop=1;jettySize=auto;html=1;labelBackgroundColor=none;fontColor=#EA6B66;noEdgeStyle=1;orthogonal=1;" edge="1" parent="1" source="37" target="36"><mxGeometry relative="1" as="geometry"><Array as="points"><mxPoint x="64" y="1575"/><mxPoint x="238" y="1575"/></Array></mxGeometry></mxCell><mxCell id="vpcPublicSubnet1Subnet2E65531E|bastion2B0A2D9E" value="SubnetId" style="edgeStyle=orthogonalEdgeStyle;rounded=1;orthogonalLoop=1;jettySize=auto;html=1;labelBackgroundColor=none;fontColor=#EA6B66;noEdgeStyle=1;orthogonal=1;" edge="1" parent="1" source="37" target="3"><mxGeometry relative="1" as="geometry"><Array as="points"><mxPoint x="62" y="1588.3333333333333"/><mxPoint x="150" y="1650"/><mxPoint x="400" y="1650"/><mxPoint x="400" y="1400"/><mxPoint x="650" y="1400"/><mxPoint x="736" y="1033"/></Array></mxGeometry></mxCell><mxCell id="bastiontoDBConnection164C5876|bastion2B0A2D9E" value="SecurityGroupIds" style="edgeStyle=orthogonalEdgeStyle;rounded=1;orthogonalLoop=1;jettySize=auto;html=1;labelBackgroundColor=none;fontColor=#EA6B66;noEdgeStyle=1;orthogonal=1;" edge="1" parent="1" source="37" target="29"><mxGeometry relative="1" as="geometry"><Array as="points"><mxPoint x="62" y="1561.6666666666667"/><mxPoint x="238" y="1135"/></Array></mxGeometry></mxCell><mxCell id="vpcPublicSubnet1Subnet2E65531E|LB8A12904C" value="Subnets" style="edgeStyle=orthogonalEdgeStyle;rounded=1;orthogonalLoop=1;jettySize=auto;html=1;labelBackgroundColor=none;fontColor=#EA6B66;noEdgeStyle=1;orthogonal=1;" edge="1" parent="1" source="38" target="3"><mxGeometry relative="1" as="geometry"><Array as="points"><mxPoint x="314" y="1875"/><mxPoint x="400" y="1650"/><mxPoint x="650" y="1650"/><mxPoint x="738" y="1041"/></Array></mxGeometry></mxCell><mxCell id="vpcPublicSubnet2Subnet009B674F|LB8A12904C" value="Subnets" style="edgeStyle=orthogonalEdgeStyle;rounded=1;orthogonalLoop=1;jettySize=auto;html=1;labelBackgroundColor=none;fontColor=#EA6B66;noEdgeStyle=1;orthogonal=1;" edge="1" parent="1" source="38" target="9"><mxGeometry relative="1" as="geometry"><Array as="points"><mxPoint x="312" y="1888.3333333333333"/><mxPoint x="400" y="1700"/><mxPoint x="650" y="1700"/><mxPoint x="738" y="1138.3333333333333"/></Array></mxGeometry></mxCell><mxCell id="LBSecurityGroup8A41EA2B|LB8A12904C" value="SecurityGroups" style="edgeStyle=orthogonalEdgeStyle;rounded=1;orthogonalLoop=1;jettySize=auto;html=1;labelBackgroundColor=none;fontColor=#EA6B66;noEdgeStyle=1;orthogonal=1;" edge="1" parent="1" source="38" target="39"><mxGeometry relative="1" as="geometry"><Array as="points"><mxPoint x="312" y="1861.6666666666667"/><mxPoint x="488" y="1538.3333333333333"/></Array></mxGeometry></mxCell><mxCell id="vpcA2121C38|LBSecurityGroup8A41EA2B" value="VpcId" style="edgeStyle=orthogonalEdgeStyle;rounded=1;orthogonalLoop=1;jettySize=auto;html=1;labelBackgroundColor=none;fontColor=#EA6B66;noEdgeStyle=1;orthogonal=1;" edge="1" parent="1" source="39" target="2"><mxGeometry relative="1" as="geometry"><Array as="points"><mxPoint x="562" y="1525"/><mxPoint x="650" y="1500"/><mxPoint x="900" y="1500"/><mxPoint x="986" y="1007.142857142857"/></Array></mxGeometry></mxCell><mxCell id="LBSecurityGroup8A41EA2B|LBSecurityGrouptoCDKSpringPipelineECStoDBConnection42FB00B3808047FABEE5" value="GroupId" style="edgeStyle=orthogonalEdgeStyle;rounded=1;orthogonalLoop=1;jettySize=auto;html=1;labelBackgroundColor=none;fontColor=#EA6B66;noEdgeStyle=1;orthogonal=1;" edge="1" parent="1" source="40" target="39"><mxGeometry relative="1" as="geometry"><Array as="points"><mxPoint x="312" y="1735"/><mxPoint x="486" y="1525"/></Array></mxGeometry></mxCell><mxCell id="ECStoDBConnection6EF693BD|LBSecurityGrouptoCDKSpringPipelineECStoDBConnection42FB00B3808047FABEE5" value="DestinationSecurityGroupId" style="edgeStyle=orthogonalEdgeStyle;rounded=1;orthogonalLoop=1;jettySize=auto;html=1;labelBackgroundColor=none;fontColor=#EA6B66;noEdgeStyle=1;orthogonal=1;" edge="1" parent="1" source="40" target="27"><mxGeometry relative="1" as="geometry"><Array as="points"><mxPoint x="312" y="1715"/><mxPoint x="400" y="1450"/><mxPoint x="650" y="1450"/><mxPoint x="736" y="1430"/></Array></mxGeometry></mxCell><mxCell id="LBPublicListenerECSGroupD6A32205|LBPublicListener6E1F3D94" value="TargetGroupArn" style="edgeStyle=orthogonalEdgeStyle;rounded=1;orthogonalLoop=1;jettySize=auto;html=1;labelBackgroundColor=none;fontColor=#EA6B66;noEdgeStyle=1;orthogonal=1;" edge="1" parent="1" source="41" target="42"><mxGeometry relative="1" as="geometry"><Array as="points"><mxPoint x="62" y="1765"/><mxPoint x="150" y="1800"/><mxPoint x="400" y="1800"/><mxPoint x="400" y="1600"/><mxPoint x="650" y="1600"/><mxPoint x="738" y="1565"/></Array></mxGeometry></mxCell><mxCell id="LB8A12904C|LBPublicListener6E1F3D94" value="LoadBalancerArn" style="edgeStyle=orthogonalEdgeStyle;rounded=1;orthogonalLoop=1;jettySize=auto;html=1;labelBackgroundColor=none;fontColor=#EA6B66;noEdgeStyle=1;orthogonal=1;" edge="1" parent="1" source="41" target="38"><mxGeometry relative="1" as="geometry"><Array as="points"><mxPoint x="62" y="1785"/><mxPoint x="238" y="1865"/></Array></mxGeometry></mxCell><mxCell id="vpcA2121C38|LBPublicListenerECSGroupD6A32205" value="VpcId" style="edgeStyle=orthogonalEdgeStyle;rounded=1;orthogonalLoop=1;jettySize=auto;html=1;labelBackgroundColor=none;fontColor=#EA6B66;noEdgeStyle=1;orthogonal=1;" edge="1" parent="1" source="42" target="2"><mxGeometry relative="1" as="geometry"><Array as="points"><mxPoint x="812" y="1575"/><mxPoint x="988" y="1010.7142857142856"/></Array></mxGeometry></mxCell><mxCell id="taskDefcontainerLogGroup46D582FF|taskDef43A87EA0" value="awslogs-group" style="edgeStyle=orthogonalEdgeStyle;rounded=1;orthogonalLoop=1;jettySize=auto;html=1;labelBackgroundColor=none;fontColor=#EA6B66;noEdgeStyle=1;orthogonal=1;" edge="1" parent="1" source="45" target="48"><mxGeometry relative="1" as="geometry"><Array as="points"><mxPoint x="814" y="2075"/><mxPoint x="988" y="1435"/></Array></mxGeometry></mxCell><mxCell id="taskDefExecutionRole9295A8C0|taskDef43A87EA0" value="ExecutionRoleArn" style="edgeStyle=orthogonalEdgeStyle;rounded=1;orthogonalLoop=1;jettySize=auto;html=1;labelBackgroundColor=none;fontColor=#EA6B66;noEdgeStyle=1;orthogonal=1;" edge="1" parent="1" source="45" target="46"><mxGeometry relative="1" as="geometry"><Array as="points"><mxPoint x="812" y="2061.6666666666665"/><mxPoint x="988" y="1335"/></Array></mxGeometry></mxCell><mxCell id="ecsTaskExecutionRole34F54B99|taskDef43A87EA0" value="TaskRoleArn" style="edgeStyle=orthogonalEdgeStyle;rounded=1;orthogonalLoop=1;jettySize=auto;html=1;labelBackgroundColor=none;fontColor=#EA6B66;noEdgeStyle=1;orthogonal=1;" edge="1" parent="1" source="45" target="44"><mxGeometry relative="1" as="geometry"><Array as="points"><mxPoint x="812" y="2088.3333333333335"/><mxPoint x="988" y="2075"/></Array></mxGeometry></mxCell><mxCell id="taskDefExecutionRole9295A8C0|taskDefExecutionRoleDefaultPolicy5FB63CF7" value="Roles" style="edgeStyle=orthogonalEdgeStyle;rounded=1;orthogonalLoop=1;jettySize=auto;html=1;labelBackgroundColor=none;fontColor=#EA6B66;noEdgeStyle=1;orthogonal=1;" edge="1" parent="1" source="47" target="46"><mxGeometry relative="1" as="geometry"><Array as="points"><mxPoint x="812" y="1665"/><mxPoint x="988" y="1315"/></Array></mxGeometry></mxCell><mxCell id="taskDefcontainerLogGroup46D582FF|taskDefExecutionRoleDefaultPolicy5FB63CF7" value="Resource" style="edgeStyle=orthogonalEdgeStyle;rounded=1;orthogonalLoop=1;jettySize=auto;html=1;labelBackgroundColor=none;fontColor=#EA6B66;noEdgeStyle=1;orthogonal=1;" edge="1" parent="1" source="47" target="48"><mxGeometry relative="1" as="geometry"><Array as="points"><mxPoint x="812" y="1685"/><mxPoint x="988" y="1415"/></Array></mxGeometry></mxCell><mxCell id="LB8A12904C|fargateServiceDNS5EF1DE4A" value="DNSName&#xA;HostedZoneId" style="edgeStyle=orthogonalEdgeStyle;rounded=1;orthogonalLoop=1;jettySize=auto;html=1;labelBackgroundColor=none;fontColor=#EA6B66;noEdgeStyle=1;orthogonal=1;" edge="1" parent="1" source="49" target="38"><mxGeometry relative="1" as="geometry"><Array as="points"><mxPoint x="62" y="1875"/><mxPoint x="238" y="1885"/></Array></mxGeometry></mxCell><mxCell id="cluster611F8AFF|fargateService93A22105" value="Cluster" style="edgeStyle=orthogonalEdgeStyle;rounded=1;orthogonalLoop=1;jettySize=auto;html=1;labelBackgroundColor=none;fontColor=#EA6B66;noEdgeStyle=1;orthogonal=1;" edge="1" parent="1" source="50" target="43"><mxGeometry relative="1" as="geometry"><Array as="points"><mxPoint x="564" y="2334.9999999999995"/><mxPoint x="736" y="1980"/></Array></mxGeometry></mxCell><mxCell id="LBPublicListenerECSGroupD6A32205|fargateService93A22105" value="TargetGroupArn" style="edgeStyle=orthogonalEdgeStyle;rounded=1;orthogonalLoop=1;jettySize=auto;html=1;labelBackgroundColor=none;fontColor=#EA6B66;noEdgeStyle=1;orthogonal=1;" edge="1" parent="1" source="50" target="42"><mxGeometry relative="1" as="geometry"><Array as="points"><mxPoint x="566" y="2328.333333333333"/><mxPoint x="738" y="1585"/></Array></mxGeometry></mxCell><mxCell id="vpcPrivateSubnet1Subnet934893E8|fargateService93A22105" value="Subnets" style="edgeStyle=orthogonalEdgeStyle;rounded=1;orthogonalLoop=1;jettySize=auto;html=1;labelBackgroundColor=none;fontColor=#EA6B66;noEdgeStyle=1;orthogonal=1;" edge="1" parent="1" source="50" target="13"><mxGeometry relative="1" as="geometry"><Array as="points"><mxPoint x="562" y="2308.3333333333335"/><mxPoint x="738" y="1235"/></Array></mxGeometry></mxCell><mxCell id="vpcPrivateSubnet2Subnet7031C2BA|fargateService93A22105" value="Subnets" style="edgeStyle=orthogonalEdgeStyle;rounded=1;orthogonalLoop=1;jettySize=auto;html=1;labelBackgroundColor=none;fontColor=#EA6B66;noEdgeStyle=1;orthogonal=1;" edge="1" parent="1" source="50" target="17"><mxGeometry relative="1" as="geometry"><Array as="points"><mxPoint x="564" y="2315"/><mxPoint x="738" y="1335"/></Array></mxGeometry></mxCell><mxCell id="taskDef43A87EA0|fargateService93A22105" value="TaskDefinition" style="edgeStyle=orthogonalEdgeStyle;rounded=1;orthogonalLoop=1;jettySize=auto;html=1;labelBackgroundColor=none;fontColor=#EA6B66;noEdgeStyle=1;orthogonal=1;" edge="1" parent="1" source="50" target="45"><mxGeometry relative="1" as="geometry"><Array as="points"><mxPoint x="562" y="2341.666666666666"/><mxPoint x="738" y="2075"/></Array></mxGeometry></mxCell><mxCell id="ECStoDBConnection6EF693BD|fargateService93A22105" value="SecurityGroups" style="edgeStyle=orthogonalEdgeStyle;rounded=1;orthogonalLoop=1;jettySize=auto;html=1;labelBackgroundColor=none;fontColor=#EA6B66;noEdgeStyle=1;orthogonal=1;" edge="1" parent="1" source="50" target="27"><mxGeometry relative="1" as="geometry"><Array as="points"><mxPoint x="566" y="2321.6666666666665"/><mxPoint x="738" y="1440"/></Array></mxGeometry></mxCell><mxCell id="projectC7BA6BD1|projectRoleDefaultPolicy3F10B507" value="Resource" style="edgeStyle=orthogonalEdgeStyle;rounded=1;orthogonalLoop=1;jettySize=auto;html=1;labelBackgroundColor=none;fontColor=#EA6B66;noEdgeStyle=1;orthogonal=1;" edge="1" parent="1" source="53" target="54"><mxGeometry relative="1" as="geometry"><Array as="points"><mxPoint x="314" y="1983"/><mxPoint x="488" y="1911.6666666666667"/></Array></mxGeometry></mxCell><mxCell id="projectRole1577EB66|projectRoleDefaultPolicy3F10B507" value="Roles" style="edgeStyle=orthogonalEdgeStyle;rounded=1;orthogonalLoop=1;jettySize=auto;html=1;labelBackgroundColor=none;fontColor=#EA6B66;noEdgeStyle=1;orthogonal=1;" edge="1" parent="1" source="53" target="52"><mxGeometry relative="1" as="geometry"><Array as="points"><mxPoint x="312" y="1959"/><mxPoint x="400" y="1750"/><mxPoint x="650" y="1750"/><mxPoint x="738" y="1765"/></Array></mxGeometry></mxCell><mxCell id="PipelineArtifactsBucketC4BB9BE3|projectRoleDefaultPolicy3F10B507" value="Resource" style="edgeStyle=orthogonalEdgeStyle;rounded=1;orthogonalLoop=1;jettySize=auto;html=1;labelBackgroundColor=none;fontColor=#EA6B66;noEdgeStyle=1;orthogonal=1;" edge="1" parent="1" source="53" target="56"><mxGeometry relative="1" as="geometry"><Array as="points"><mxPoint x="312" y="1991"/><mxPoint x="488" y="2009"/></Array></mxGeometry></mxCell><mxCell id="EcrRepoBB83A592|projectRoleDefaultPolicy3F10B507" value="Resource" style="edgeStyle=orthogonalEdgeStyle;rounded=1;orthogonalLoop=1;jettySize=auto;html=1;labelBackgroundColor=none;fontColor=#EA6B66;noEdgeStyle=1;orthogonal=1;" edge="1" parent="1" source="53" target="51"><mxGeometry relative="1" as="geometry"><Array as="points"><mxPoint x="314" y="1967"/><mxPoint x="400" y="1800"/><mxPoint x="650" y="1800"/><mxPoint x="738" y="1865"/></Array></mxGeometry></mxCell><mxCell id="cluster611F8AFF|projectRoleDefaultPolicy3F10B507" value="Resource" style="edgeStyle=orthogonalEdgeStyle;rounded=1;orthogonalLoop=1;jettySize=auto;html=1;labelBackgroundColor=none;fontColor=#EA6B66;noEdgeStyle=1;orthogonal=1;" edge="1" parent="1" source="53" target="43"><mxGeometry relative="1" as="geometry"><Array as="points"><mxPoint x="316" y="1975"/><mxPoint x="400" y="1850"/><mxPoint x="650" y="1850"/><mxPoint x="738" y="1960"/></Array></mxGeometry></mxCell><mxCell id="cluster611F8AFF|projectC7BA6BD1" value="Variable" style="edgeStyle=orthogonalEdgeStyle;rounded=1;orthogonalLoop=1;jettySize=auto;html=1;labelBackgroundColor=none;fontColor=#EA6B66;noEdgeStyle=1;orthogonal=1;" edge="1" parent="1" source="54" target="43"><mxGeometry relative="1" as="geometry"><Array as="points"><mxPoint x="562" y="1938.3333333333333"/><mxPoint x="736" y="1970"/></Array></mxGeometry></mxCell><mxCell id="EcrRepoBB83A592|projectC7BA6BD1" value="Variable" style="edgeStyle=orthogonalEdgeStyle;rounded=1;orthogonalLoop=1;jettySize=auto;html=1;labelBackgroundColor=none;fontColor=#EA6B66;noEdgeStyle=1;orthogonal=1;" edge="1" parent="1" source="54" target="51"><mxGeometry relative="1" as="geometry"><Array as="points"><mxPoint x="564" y="1925"/><mxPoint x="738" y="1885"/></Array></mxGeometry></mxCell><mxCell id="projectRole1577EB66|projectC7BA6BD1" value="ServiceRole" style="edgeStyle=orthogonalEdgeStyle;rounded=1;orthogonalLoop=1;jettySize=auto;html=1;labelBackgroundColor=none;fontColor=#EA6B66;noEdgeStyle=1;orthogonal=1;" edge="1" parent="1" source="54" target="52"><mxGeometry relative="1" as="geometry"><Array as="points"><mxPoint x="562" y="1911.6666666666667"/><mxPoint x="738" y="1785"/></Array></mxGeometry></mxCell><mxCell id="CodeBuildRole728CBADE|CodeBuildRoleDefaultPolicy829527DE" value="Roles" style="edgeStyle=orthogonalEdgeStyle;rounded=1;orthogonalLoop=1;jettySize=auto;html=1;labelBackgroundColor=none;fontColor=#EA6B66;noEdgeStyle=1;orthogonal=1;" edge="1" parent="1" source="58" target="57"><mxGeometry relative="1" as="geometry"><Array as="points"><mxPoint x="62" y="1961.6666666666667"/><mxPoint x="238" y="2075"/></Array></mxGeometry></mxCell><mxCell id="SourceAssetBucket61A8AEF8|CodeBuildRoleDefaultPolicy829527DE" value="Resource" style="edgeStyle=orthogonalEdgeStyle;rounded=1;orthogonalLoop=1;jettySize=auto;html=1;labelBackgroundColor=none;fontColor=#EA6B66;noEdgeStyle=1;orthogonal=1;" edge="1" parent="1" source="58" target="55"><mxGeometry relative="1" as="geometry"><Array as="points"><mxPoint x="62" y="1988.3333333333333"/><mxPoint x="238" y="2215"/></Array></mxGeometry></mxCell><mxCell id="PipelineArtifactsBucketC4BB9BE3|CodeBuildRoleDefaultPolicy829527DE" value="Resource" style="edgeStyle=orthogonalEdgeStyle;rounded=1;orthogonalLoop=1;jettySize=auto;html=1;labelBackgroundColor=none;fontColor=#EA6B66;noEdgeStyle=1;orthogonal=1;" edge="1" parent="1" source="58" target="56"><mxGeometry relative="1" as="geometry"><Array as="points"><mxPoint x="64" y="1975"/><mxPoint x="150" y="2150"/><mxPoint x="400" y="2150"/><mxPoint x="486" y="2017"/></Array></mxGeometry></mxCell><mxCell id="CodePipelineRoleB31C27BE|CodePipelineRoleDefaultPolicy2731C56D" value="Roles" style="edgeStyle=orthogonalEdgeStyle;rounded=1;orthogonalLoop=1;jettySize=auto;html=1;labelBackgroundColor=none;fontColor=#EA6B66;noEdgeStyle=1;orthogonal=1;" edge="1" parent="1" source="60" target="59"><mxGeometry relative="1" as="geometry"><Array as="points"><mxPoint x="66" y="2075"/><mxPoint x="150" y="2350"/><mxPoint x="400" y="2350"/><mxPoint x="488" y="2115"/></Array></mxGeometry></mxCell><mxCell id="SourceAssetBucket61A8AEF8|CodePipelineRoleDefaultPolicy2731C56D" value="Resource" style="edgeStyle=orthogonalEdgeStyle;rounded=1;orthogonalLoop=1;jettySize=auto;html=1;labelBackgroundColor=none;fontColor=#EA6B66;noEdgeStyle=1;orthogonal=1;" edge="1" parent="1" source="60" target="55"><mxGeometry relative="1" as="geometry"><Array as="points"><mxPoint x="62" y="2059"/><mxPoint x="238" y="2235"/></Array></mxGeometry></mxCell><mxCell id="PipelineArtifactsBucketC4BB9BE3|CodePipelineRoleDefaultPolicy2731C56D" value="Resource" style="edgeStyle=orthogonalEdgeStyle;rounded=1;orthogonalLoop=1;jettySize=auto;html=1;labelBackgroundColor=none;fontColor=#EA6B66;noEdgeStyle=1;orthogonal=1;" edge="1" parent="1" source="60" target="56"><mxGeometry relative="1" as="geometry"><Array as="points"><mxPoint x="64" y="2067"/><mxPoint x="150" y="2300"/><mxPoint x="400" y="2300"/><mxPoint x="484" y="2025"/></Array></mxGeometry></mxCell><mxCell id="AssetsCodePipelineBuildbuildanddeployCodePipelineActionRoleE74C0347|CodePipelineRoleDefaultPolicy2731C56D" value="Resource" style="edgeStyle=orthogonalEdgeStyle;rounded=1;orthogonalLoop=1;jettySize=auto;html=1;labelBackgroundColor=none;fontColor=#EA6B66;noEdgeStyle=1;orthogonal=1;" edge="1" parent="1" source="60" target="63"><mxGeometry relative="1" as="geometry"><Array as="points"><mxPoint x="64" y="2083"/><mxPoint x="150" y="2500"/><mxPoint x="400" y="2500"/><mxPoint x="486" y="2225"/></Array></mxGeometry></mxCell><mxCell id="AssetsCodePipelineDeploytoECSDeployActionCodePipelineActionRole08608417|CodePipelineRoleDefaultPolicy2731C56D" value="Resource" style="edgeStyle=orthogonalEdgeStyle;rounded=1;orthogonalLoop=1;jettySize=auto;html=1;labelBackgroundColor=none;fontColor=#EA6B66;noEdgeStyle=1;orthogonal=1;" edge="1" parent="1" source="60" target="65"><mxGeometry relative="1" as="geometry"><Array as="points"><mxPoint x="62" y="2091"/><mxPoint x="150" y="2750"/><mxPoint x="400" y="2750"/><mxPoint x="488" y="2688.3333333333335"/></Array></mxGeometry></mxCell><mxCell id="projectC7BA6BD1|AssetsCodePipelineC9CF3FAA" value="ProjectName" style="edgeStyle=orthogonalEdgeStyle;rounded=1;orthogonalLoop=1;jettySize=auto;html=1;labelBackgroundColor=none;fontColor=#EA6B66;noEdgeStyle=1;orthogonal=1;" edge="1" parent="1" source="61" target="54"><mxGeometry relative="1" as="geometry"><Array as="points"><mxPoint x="312" y="2553.5714285714284"/><mxPoint x="488" y="1938.3333333333333"/></Array></mxGeometry></mxCell><mxCell id="cluster611F8AFF|AssetsCodePipelineC9CF3FAA" value="ClusterName" style="edgeStyle=orthogonalEdgeStyle;rounded=1;orthogonalLoop=1;jettySize=auto;html=1;labelBackgroundColor=none;fontColor=#EA6B66;noEdgeStyle=1;orthogonal=1;" edge="1" parent="1" source="61" target="43"><mxGeometry relative="1" as="geometry"><Array as="points"><mxPoint x="314" y="2589.285714285715"/><mxPoint x="400" y="2400"/><mxPoint x="650" y="2400"/><mxPoint x="738" y="1990"/></Array></mxGeometry></mxCell><mxCell id="PipelineArtifactsBucketC4BB9BE3|AssetsCodePipelineC9CF3FAA" value="Location" style="edgeStyle=orthogonalEdgeStyle;rounded=1;orthogonalLoop=1;jettySize=auto;html=1;labelBackgroundColor=none;fontColor=#EA6B66;noEdgeStyle=1;orthogonal=1;" edge="1" parent="1" source="61" target="56"><mxGeometry relative="1" as="geometry"><Array as="points"><mxPoint x="314" y="2560.714285714286"/><mxPoint x="486" y="2033"/></Array></mxGeometry></mxCell><mxCell id="CodePipelineRoleB31C27BE|AssetsCodePipelineC9CF3FAA" value="RoleArn" style="edgeStyle=orthogonalEdgeStyle;rounded=1;orthogonalLoop=1;jettySize=auto;html=1;labelBackgroundColor=none;fontColor=#EA6B66;noEdgeStyle=1;orthogonal=1;" edge="1" parent="1" source="61" target="59"><mxGeometry relative="1" as="geometry"><Array as="points"><mxPoint x="316" y="2567.857142857143"/><mxPoint x="488" y="2135"/></Array></mxGeometry></mxCell><mxCell id="AssetsCodePipelineBuildbuildanddeployCodePipelineActionRoleE74C0347|AssetsCodePipelineC9CF3FAA" value="RoleArn" style="edgeStyle=orthogonalEdgeStyle;rounded=1;orthogonalLoop=1;jettySize=auto;html=1;labelBackgroundColor=none;fontColor=#EA6B66;noEdgeStyle=1;orthogonal=1;" edge="1" parent="1" source="61" target="63"><mxGeometry relative="1" as="geometry"><Array as="points"><mxPoint x="318" y="2575.0000000000005"/><mxPoint x="488" y="2238.3333333333335"/></Array></mxGeometry></mxCell><mxCell id="fargateService93A22105|AssetsCodePipelineC9CF3FAA" value="ServiceName" style="edgeStyle=orthogonalEdgeStyle;rounded=1;orthogonalLoop=1;jettySize=auto;html=1;labelBackgroundColor=none;fontColor=#EA6B66;noEdgeStyle=1;orthogonal=1;" edge="1" parent="1" source="61" target="50"><mxGeometry relative="1" as="geometry"><Array as="points"><mxPoint x="316" y="2582.142857142858"/><mxPoint x="488" y="2325"/></Array></mxGeometry></mxCell><mxCell id="AssetsCodePipelineDeploytoECSDeployActionCodePipelineActionRole08608417|AssetsCodePipelineC9CF3FAA" value="RoleArn" style="edgeStyle=orthogonalEdgeStyle;rounded=1;orthogonalLoop=1;jettySize=auto;html=1;labelBackgroundColor=none;fontColor=#EA6B66;noEdgeStyle=1;orthogonal=1;" edge="1" parent="1" source="61" target="65"><mxGeometry relative="1" as="geometry"><Array as="points"><mxPoint x="312" y="2596.4285714285725"/><mxPoint x="488" y="2661.6666666666665"/></Array></mxGeometry></mxCell><mxCell id="AssetsCodePipelineC9CF3FAA|AssetsCodePipelineSourceGitHubSourceWebhookResource6EE4E222" value="TargetPipeline" style="edgeStyle=orthogonalEdgeStyle;rounded=1;orthogonalLoop=1;jettySize=auto;html=1;labelBackgroundColor=none;fontColor=#EA6B66;noEdgeStyle=1;orthogonal=1;" edge="1" parent="1" source="62" target="61"><mxGeometry relative="1" as="geometry"><Array as="points"><mxPoint x="62" y="2575"/><mxPoint x="238" y="2575"/></Array></mxGeometry></mxCell><mxCell id="AssetsCodePipelineBuildbuildanddeployCodePipelineActionRoleE74C0347|AssetsCodePipelineBuildbuildanddeployCodePipelineActionRoleDefaultPolicyA4768945" value="Roles" style="edgeStyle=orthogonalEdgeStyle;rounded=1;orthogonalLoop=1;jettySize=auto;html=1;labelBackgroundColor=none;fontColor=#EA6B66;noEdgeStyle=1;orthogonal=1;" edge="1" parent="1" source="64" target="63"><mxGeometry relative="1" as="geometry"><Array as="points"><mxPoint x="312" y="2435"/><mxPoint x="488" y="2211.6666666666665"/></Array></mxGeometry></mxCell><mxCell id="projectC7BA6BD1|AssetsCodePipelineBuildbuildanddeployCodePipelineActionRoleDefaultPolicyA4768945" value="Resource" style="edgeStyle=orthogonalEdgeStyle;rounded=1;orthogonalLoop=1;jettySize=auto;html=1;labelBackgroundColor=none;fontColor=#EA6B66;noEdgeStyle=1;orthogonal=1;" edge="1" parent="1" source="64" target="54"><mxGeometry relative="1" as="geometry"><Array as="points"><mxPoint x="312" y="2415"/><mxPoint x="486" y="1925"/></Array></mxGeometry></mxCell><mxCell id="AssetsCodePipelineDeploytoECSDeployActionCodePipelineActionRole08608417|AssetsCodePipelineDeploytoECSDeployActionCodePipelineActionRoleDefaultPolicyE62EC8F0" value="Roles" style="edgeStyle=orthogonalEdgeStyle;rounded=1;orthogonalLoop=1;jettySize=auto;html=1;labelBackgroundColor=none;fontColor=#EA6B66;noEdgeStyle=1;orthogonal=1;" edge="1" parent="1" source="66" target="65"><mxGeometry relative="1" as="geometry"><Array as="points"><mxPoint x="312" y="2685"/><mxPoint x="486" y="2675"/></Array></mxGeometry></mxCell><mxCell id="PipelineArtifactsBucketC4BB9BE3|AssetsCodePipelineDeploytoECSDeployActionCodePipelineActionRoleDefaultPolicyE62EC8F0" value="Resource" style="edgeStyle=orthogonalEdgeStyle;rounded=1;orthogonalLoop=1;jettySize=auto;html=1;labelBackgroundColor=none;fontColor=#EA6B66;noEdgeStyle=1;orthogonal=1;" edge="1" parent="1" source="66" target="56"><mxGeometry relative="1" as="geometry"><Array as="points"><mxPoint x="312" y="2665"/><mxPoint x="488" y="2041"/></Array></mxGeometry></mxCell></root></mxGraphModel>
            </diagram>
          </mxfile>